<svg width="50" height="50" viewBox="0 0 50 50" fill="none" xmlns="http://www.w3.org/2000/svg">
<path d="M6.25 50C4.53125 50 3.06042 49.5341 1.8375 48.6024C0.614583 47.6706 0.00208333 46.5492 0 45.2381V21.4286C0 20.119 0.612499 18.9984 1.8375 18.0667C3.0625 17.1349 4.53333 16.6683 6.25 16.6667H9.375V11.9048C9.375 8.61111 10.899 5.80397 13.9469 3.48333C16.9948 1.1627 20.6792 0.00158893 25 1.62522e-06C29.3208 -0.00158568 33.0062 1.15953 36.0562 3.48333C39.1062 5.80714 40.6292 8.61429 40.625 11.9048V16.6667H43.75C45.4687 16.6667 46.9406 17.1333 48.1656 18.0667C49.3906 19 50.0021 20.1206 50 21.4286V45.2381C50 46.5476 49.3885 47.669 48.1656 48.6024C46.9427 49.5357 45.4708 50.0016 43.75 50H6.25ZM29.4156 36.6976C30.6385 35.7643 31.25 34.6429 31.25 33.3333C31.25 32.0238 30.6385 30.9032 29.4156 29.9714C28.1927 29.0397 26.7208 28.573 25 28.5714C23.2792 28.5698 21.8083 29.0365 20.5875 29.9714C19.3667 30.9063 18.7542 32.027 18.75 33.3333C18.7458 34.6397 19.3583 35.7611 20.5875 36.6976C21.8167 37.6341 23.2875 38.1 25 38.0952C26.7125 38.0905 28.1844 37.6246 29.4156 36.6976ZM15.625 16.6667H34.375V11.9048C34.375 9.92064 33.4635 8.23413 31.6406 6.84524C29.8177 5.45635 27.6042 4.76191 25 4.76191C22.3958 4.76191 20.1823 5.45635 18.3594 6.84524C16.5365 8.23413 15.625 9.92064 15.625 11.9048V16.6667Z" fill="#145A41"/>
</svg>
