<svg width="109" height="27" viewBox="0 0 109 27" fill="none" xmlns="http://www.w3.org/2000/svg">
<path d="M1.875 20V6.46484H9.61914V7.82227H3.47656V12.1875H8.65234V13.5742H3.47656V18.6426H9.82422V20H1.875ZM12.6953 20V6.46484H14.3652L19.375 15.1367C19.6224 15.5924 19.8698 16.0547 20.1172 16.5234C20.3711 16.9922 20.6087 17.4577 20.8301 17.9199H20.918C20.8724 17.2428 20.8268 16.543 20.7812 15.8203C20.7357 15.0911 20.7129 14.375 20.7129 13.6719V6.46484H22.2363V20H20.5859L15.5566 11.3477C15.3092 10.8919 15.0618 10.4264 14.8145 9.95117C14.5736 9.47591 14.3327 9.00716 14.0918 8.54492H14.0137C14.0527 9.22201 14.0951 9.91536 14.1406 10.625C14.1927 11.3281 14.2188 12.028 14.2188 12.7246V20H12.6953ZM31.2695 20.2441C30.0846 20.2441 29.0332 19.9674 28.1152 19.4141C27.1973 18.8542 26.4779 18.0534 25.957 17.0117C25.4427 15.9635 25.1855 14.707 25.1855 13.2422C25.1855 11.7904 25.4525 10.5404 25.9863 9.49219C26.5202 8.44401 27.2526 7.63672 28.1836 7.07031C29.1146 6.4974 30.179 6.21094 31.377 6.21094C32.3145 6.21094 33.0957 6.38672 33.7207 6.73828C34.3457 7.08984 34.8535 7.4707 35.2441 7.88086L34.3652 8.89648C34.0267 8.5319 33.6198 8.23242 33.1445 7.99805C32.6693 7.75716 32.0931 7.63672 31.416 7.63672C30.4915 7.63672 29.6875 7.86458 29.0039 8.32031C28.3203 8.76953 27.7897 9.41081 27.4121 10.2441C27.041 11.071 26.8555 12.0573 26.8555 13.2031C26.8555 14.9349 27.2493 16.3053 28.0371 17.3145C28.8249 18.3236 29.9512 18.8281 31.416 18.8281C31.9108 18.8281 32.3828 18.7598 32.832 18.623C33.2812 18.4798 33.6458 18.2747 33.9258 18.0078V14.375H31.0059V13.0371H35.4102V18.6816C34.9805 19.1374 34.4076 19.5117 33.6914 19.8047C32.9753 20.0977 32.168 20.2441 31.2695 20.2441Z" fill="white"/>
<path d="M63.8241 12.4571C64.2147 12.0666 64.2147 11.4334 63.8241 11.0429L57.4602 4.67893C57.0697 4.28841 56.4365 4.28841 56.046 4.67893C55.6554 5.06946 55.6554 5.70262 56.046 6.09315L61.7028 11.75L56.046 17.4069C55.6554 17.7974 55.6554 18.4305 56.046 18.8211C56.4365 19.2116 57.0697 19.2116 57.4602 18.8211L63.8241 12.4571ZM50.9948 11.75V12.75H63.117V11.75V10.75H50.9948V11.75Z" fill="white"/>
<path d="M78.6309 20.2441C77.7324 20.2441 76.9186 20.0651 76.1895 19.707C75.4603 19.349 74.8809 18.75 74.4512 17.9102C74.0215 17.0638 73.8066 15.9212 73.8066 14.4824V6.46484H75.418V14.502C75.418 15.6022 75.5612 16.4681 75.8477 17.0996C76.1341 17.7246 76.5215 18.1706 77.0098 18.4375C77.498 18.6979 78.0384 18.8281 78.6309 18.8281C79.2363 18.8281 79.7865 18.6979 80.2812 18.4375C80.7826 18.1706 81.1797 17.7246 81.4727 17.0996C81.7656 16.4681 81.9121 15.6022 81.9121 14.502V6.46484H83.4551V14.4824C83.4551 15.9212 83.2402 17.0638 82.8105 17.9102C82.3809 18.75 81.8014 19.349 81.0723 19.707C80.3496 20.0651 79.5358 20.2441 78.6309 20.2441ZM87.1562 20V6.46484H88.7578V13.3691H88.8262L94.5781 6.46484H96.3848L92.1367 11.6113L97.0488 20H95.252L91.1504 12.8516L88.7578 15.6738V20H87.1562ZM99.0312 20V6.46484H103.211C104.129 6.46484 104.939 6.58529 105.643 6.82617C106.352 7.06706 106.906 7.46419 107.303 8.01758C107.706 8.56445 107.908 9.30339 107.908 10.2344C107.908 11.1263 107.706 11.8685 107.303 12.4609C106.906 13.0469 106.352 13.4863 105.643 13.7793C104.939 14.0658 104.129 14.209 103.211 14.209H100.633V20H99.0312ZM100.633 12.9102H102.967C104.035 12.9102 104.858 12.6888 105.438 12.2461C106.017 11.8034 106.307 11.1328 106.307 10.2344C106.307 9.32292 106.017 8.68815 105.438 8.33008C104.858 7.96549 104.035 7.7832 102.967 7.7832H100.633V12.9102ZM106.473 20L102.879 13.7598L104.178 12.959L108.279 20H106.473Z" fill="white"/>
</svg>
