<svg width="21" height="21" viewBox="0 0 21 21" fill="none" xmlns="http://www.w3.org/2000/svg">
<path d="M10.5 0.750244C15.8848 0.750244 20.2498 5.11485 20.25 10.4993C20.25 15.8839 15.8849 20.2493 10.5 20.2493C5.11506 20.2493 0.75 15.8839 0.75 10.4993C0.75024 5.11485 5.11521 0.750244 10.5 0.750244Z" stroke="#145A41" stroke-width="0.5"/>
<path d="M10.8752 0.759766C15.3196 6.40145 15.3193 14.5974 10.8752 20.2393C10.6246 20.2489 10.3739 20.2489 10.1233 20.2393C5.67953 14.5975 5.67921 6.40135 10.1233 0.759766C10.3739 0.750085 10.6246 0.750099 10.8752 0.759766Z" stroke="#145A41" stroke-width="0.5"/>
<path d="M1.5 10.4997H19.5M0.5 10.4997C0.5 4.97701 4.977 0.500244 10.5 0.500244C16.023 0.500244 20.5 4.97701 20.5 10.4997C20.5 16.0224 16.023 20.4992 10.5 20.4992C4.977 20.4992 0.5 16.0224 0.5 10.4997Z" stroke="#145A41" stroke-linecap="square"/>
<path d="M9.99906 20.4875C10.3325 20.5042 10.6666 20.5042 11.0001 20.4875C15.6131 14.7218 15.6131 6.27822 11.0001 0.512532C10.6666 0.495823 10.3325 0.495823 9.99906 0.512532C5.38606 6.27822 5.38606 14.7218 9.99906 20.4875Z" stroke="#145A41" stroke-linecap="square"/>
</svg>
